<?xml version="1.0" standalone="no"?>
<!DOCTYPE svg PUBLIC "-//W3C//DTD SVG 20010904//EN"
 "http://www.w3.org/TR/2001/REC-SVG-20010904/DTD/svg10.dtd">
<svg version="1.0" xmlns="http://www.w3.org/2000/svg"
 width="260.000000pt" height="260.000000pt" viewBox="0 0 260.000000 260.000000"
 preserveAspectRatio="xMidYMid meet">
<metadata>
Created by potrace 1.14, written by Peter Selinger 2001-2017
</metadata>
<g transform="translate(0.000000,260.000000) scale(0.100000,-0.100000)"
fill="#000000" stroke="none">
<path d="M863 2410 c-36 -15 -43 -43 -43 -179 l0 -131 -134 0 c-131 0 -134 -1
-160 -26 l-26 -27 0 -907 c0 -879 1 -909 19 -931 l19 -24 594 -2 c573 -3 594
-2 618 16 24 19 25 24 28 160 l4 141 134 0 c130 0 136 1 160 25 l24 24 -2 917
-3 916 -24 19 c-22 18 -47 19 -605 18 -319 0 -591 -4 -603 -9z"/>
</g>
</svg>
